<?xml version="1.0" standalone="no"?>
<!DOCTYPE svg PUBLIC "-//W3C//DTD SVG 20010904//EN"
 "http://www.w3.org/TR/2001/REC-SVG-20010904/DTD/svg10.dtd">
<svg version="1.0" xmlns="http://www.w3.org/2000/svg"
 width="354.000000pt" height="142.000000pt" viewBox="0 0 354.000000 142.000000"
 preserveAspectRatio="xMidYMid meet">
<metadata>
Created by potrace 1.16, written by Peter Selinger 2001-2019
</metadata>
<g transform="translate(0.000000,142.000000) scale(0.100000,-0.100000)"
fill="#000000" stroke="none">
<path d="M399 1188 l-256 -132 4 -185 c2 -102 6 -231 9 -286 l6 -100 150 -99
c83 -55 156 -99 164 -99 7 0 12 -3 11 -7 -3 -10 156 -118 179 -122 12 -2 18 2
16 10 -1 8 2 11 8 7 12 -8 240 143 240 159 0 6 -5 4 -11 -4 -8 -12 -10 -12 -7
-1 2 8 12 15 21 17 9 1 15 -2 11 -7 -3 -5 37 18 88 52 51 34 105 68 119 77 25
15 26 19 33 150 3 75 6 204 6 288 l0 153 -254 130 c-140 72 -260 131 -267 131
-8 0 -129 -60 -270 -132z"/>
<path d="M1579 890 c-96 -17 -146 -65 -120 -114 18 -33 47 -44 169 -62 115
-17 142 -27 142 -49 0 -20 -27 -32 -75 -35 -78 -5 -106 0 -129 23 -16 16 -37
24 -69 26 -41 2 -47 0 -47 -18 0 -28 43 -58 104 -72 66 -14 221 -8 260 12 41
20 70 61 61 88 -11 37 -50 52 -176 71 -123 19 -166 37 -142 61 33 33 163 29
189 -5 8 -11 28 -16 63 -16 55 0 56 1 40 32 -24 45 -168 77 -270 58z"/>
<path d="M1320 740 c0 -136 2 -150 18 -152 9 -1 34 -2 55 -4 l37 -2 0 154 0
154 -55 0 -55 0 0 -150z"/>
<path d="M2020 881 c-118 -38 -163 -116 -120 -205 33 -70 85 -91 225 -91 95 0
116 3 152 22 38 21 73 56 73 74 0 4 -23 6 -50 5 -37 -2 -57 -9 -76 -26 -38
-36 -136 -40 -183 -8 -65 44 -60 138 10 173 46 24 140 17 172 -13 18 -17 36
-22 75 -22 29 0 52 4 52 8 0 12 -50 57 -80 73 -29 15 -213 22 -250 10z"/>
<path d="M2421 744 c-50 -80 -91 -150 -91 -155 0 -5 23 -7 51 -5 40 2 56 8 70
27 10 13 19 27 19 32 0 4 45 7 100 7 l99 0 15 -29 c17 -32 34 -41 76 -41 63 0
63 4 -34 160 l-91 149 -61 0 -61 1 -92 -146z"/>
<path d="M2835 877 c-3 -7 -4 -76 -3 -152 l3 -140 48 -1 47 0 0 125 c0 68 3
121 7 117 4 -4 28 -60 53 -124 l45 -117 54 0 54 0 48 125 c26 69 49 121 49
115 0 -5 2 -62 3 -125 l2 -115 48 -3 47 -2 0 155 0 156 -77 -3 -77 -3 -45
-112 c-24 -62 -48 -113 -51 -113 -4 0 -27 51 -52 113 l-44 112 -77 3 c-58 2
-79 -1 -82 -11z"/>
</g>
</svg>
