<?xml version="1.0" standalone="no"?>
<!DOCTYPE svg PUBLIC "-//W3C//DTD SVG 20010904//EN"
 "http://www.w3.org/TR/2001/REC-SVG-20010904/DTD/svg10.dtd">
<svg version="1.0" xmlns="http://www.w3.org/2000/svg"
 width="380.000000pt" height="243.000000pt" viewBox="0 0 380.000000 243.000000"
 preserveAspectRatio="xMidYMid meet">

<g transform="translate(0.000000,243.000000) scale(0.100000,-0.100000)"
fill="#000000" stroke="none">
<path d="M1072 1433 l-142 -75 4 -46 c2 -26 5 -98 5 -159 l1 -113 88 -57 c48
-32 89 -60 92 -63 3 -3 29 -21 58 -39 52 -33 54 -34 85 -18 18 8 84 51 147 94
l115 79 8 84 c4 47 6 120 5 163 l-3 79 -140 74 c-77 40 -149 73 -160 73 -11 0
-84 -34 -163 -76z"/>
<path d="M1755 1263 c-26 -7 -55 -33 -55 -48 0 -23 28 -36 96 -46 76 -11 101
-24 83 -45 -16 -19 -103 -18 -119 1 -15 18 -63 20 -58 3 8 -23 52 -38 113 -38
63 0 101 14 118 41 17 27 -14 48 -80 55 -101 12 -131 34 -75 55 21 9 38 7 78
-6 63 -21 90 -16 52 9 -27 18 -117 29 -153 19z"/>
<path d="M2038 1263 c-38 -6 -88 -55 -88 -86 0 -33 44 -75 87 -83 74 -14 173
12 173 46 0 12 -35 8 -51 -7 -27 -23 -82 -27 -117 -9 -27 14 -32 22 -32 51 0
24 7 39 22 49 29 20 102 21 118 1 14 -17 60 -21 60 -5 0 30 -102 56 -172 43z"/>
<path d="M1620 1181 c0 -71 2 -80 20 -86 34 -11 40 3 40 86 l0 79 -30 0 -30 0
0 -79z"/>
<path d="M2267 1182 c-26 -43 -47 -80 -47 -83 0 -12 40 -2 58 14 24 22 124 24
142 2 12 -15 65 -22 58 -7 -1 4 -23 40 -47 80 -41 68 -45 72 -80 72 -34 0 -38
-4 -84 -78z m108 8 c21 -40 20 -40 -25 -40 -22 0 -40 2 -40 5 0 14 32 65 40
65 5 0 16 -13 25 -30z"/>
<path d="M2510 1182 c0 -43 3 -81 6 -84 3 -3 14 -4 25 -1 16 5 19 14 19 71 0
76 8 74 42 -13 20 -51 28 -60 51 -63 23 -3 30 2 42 32 8 20 23 53 32 74 l17
37 6 -70 c4 -62 7 -70 25 -70 18 0 20 8 23 83 l3 82 -44 0 -44 0 -24 -61 c-13
-34 -28 -61 -33 -61 -5 0 -20 28 -34 61 l-24 61 -44 0 -44 0 0 -78z"/>
</g>
</svg>
